<?xml version="1.0" encoding="UTF-8" standalone="no"?>
<!DOCTYPE svg PUBLIC "-//W3C//DTD SVG 1.1//EN" "http://www.w3.org/Graphics/SVG/1.1/DTD/svg11.dtd">
<svg width="100%" height="100%" viewBox="0 0 512 512" version="1.1" xmlns="http://www.w3.org/2000/svg" xmlns:xlink="http://www.w3.org/1999/xlink" xml:space="preserve" xmlns:serif="http://www.serif.com/" style="fill-rule:evenodd;clip-rule:evenodd;stroke-linejoin:round;stroke-miterlimit:2;">
    <g transform="matrix(1.12385,0,0,0.942162,-144.654,160.174)">
        <path d="M142.95,-153.025L233.821,-153.025C254.313,-153.025 269.934,-151.457 280.684,-148.322C295.13,-144.066 307.503,-136.508 317.805,-125.646C328.107,-114.784 335.946,-101.486 341.321,-85.753C346.696,-70.02 349.383,-50.62 349.383,-27.552C349.383,-7.284 346.864,10.185 341.825,24.854C335.666,42.771 326.876,57.272 315.454,68.358C306.831,76.756 295.186,83.307 280.516,88.01C269.542,91.482 254.873,93.217 236.508,93.217L142.95,93.217L142.95,-153.025ZM192.669,-89.341L192.669,29.494L229.79,29.494C243.675,29.494 253.697,28.71 259.856,27.142C267.919,25.126 274.609,21.711 279.928,16.896C285.247,12.081 289.587,8.404 292.946,-2.626C296.305,-13.656 295.995,-10.699 295.995,-29.736C295.995,-48.772 296.305,-45.604 292.946,-55.794C289.587,-65.984 284.883,-69.689 278.837,-75.4C272.79,-81.111 265.119,-84.974 255.825,-86.99C248.882,-88.558 235.277,-89.341 215.008,-89.341L192.669,-89.341Z" style="fill:rgb(255,213,144);fill-rule:nonzero;"/>
    </g>
    <g transform="matrix(1.69312,0,0,1.66667,-1295.51,263.301)">
        <path d="M934.081,139.619L898.644,139.619L898.644,-148.381L921.088,-148.381L934.081,-141.181L934.081,139.619Z" style="fill:rgb(62,142,237);fill-rule:nonzero;"/>
    </g>
    <g transform="matrix(1.37434,0,0,1.23986,79.7734,339.202)">
        <path d="M302.856,126.464L134.048,11.935L134.048,-36.457L302.856,-136.468L302.856,-88.076L177.705,-12.261L302.856,78.071L302.856,126.464Z" style="fill:rgb(114,172,241);fill-rule:nonzero;"/>
    </g>
    <g transform="matrix(-1.37434,0,0,1.23986,680.227,167.202)">
        <path d="M302.856,126.464L134.048,26.453L134.048,-21.94L302.856,-121.951L302.856,-73.558L177.705,2.257L302.856,78.071L302.856,126.464Z" style="fill:rgb(167,203,246);fill-rule:nonzero;"/>
    </g>
    <g transform="matrix(1.18559,0,0,0.942162,-133.671,408.174)">
        <path d="M197.093,93.217L197.093,-89.341L126.242,-89.341L126.242,-153.025L321.926,-153.025L321.926,-89.341L247.701,-89.341L247.701,93.217L197.093,93.217Z" style="fill:rgb(255,229,185);fill-rule:nonzero;"/>
    </g>
</svg>
